<?xml version="1.0" encoding="UTF-8"?>
<svg width="300" version="1.1" viewBox="-8 -1 100 102" xmlns="http://www.w3.org/2000/svg">
 <defs>
  <clipPath id="clipPath20-8">
   <path d="m87.979 142.28c-0.59531 12.568-3.582 18.19-3.582 25.598s8.1029 11.344 13.659 3.9357c0.76328-0.97083 0.81451-1.4416 2.9435-1.3751l-1e-5 -28.159z" fill="#516d71" style="paint-order:stroke fill markers"/>
  </clipPath>
  <clipPath id="clipPath19-9">
   <path d="m114.02 142.34c0.59532 12.568 3.582 18.19 3.582 25.598s-8.1029 11.344-13.659 3.9357c-1.2842-2.4702-0.77081-2.3086-2.8734-2.1936l-0.0702-27.34z" fill="#516d71" style="paint-order:stroke fill markers"/>
  </clipPath>
  <clipPath id="clipPath5-3">
   <path d="m87.979 142.28c-0.59531 12.568-3.5822 18.19-3.5822 25.598 0 0.0523 0.0044 0.10258 0.0052 0.15451 10.149 4.83 21.107 5.3941 33.195 0 7.9e-4 -0.0519 5e-3 -0.10223 5e-3 -0.15451 0-7.4083-2.9869-13.031-3.5822-25.598h-13.02z" fill="#516d71" style="paint-order:stroke fill markers"/>
  </clipPath>
  <clipPath id="clipPath3-8">
   <path d="m86.682 153.42c-7.3465-4.7173-10.991-8.1526-8.7144-11.752 2.9429-3.5906 7.683 0.10845 10.715 2.1169l3.4848 4.3316zm28.635 0c7.3466-4.7173 10.991-8.1526 8.7144-11.752-2.943-3.5906-7.683 0.10845-10.715 2.1169l-3.4848 4.3316z" fill="#e4dae1" stroke-linecap="round" stroke-linejoin="round" stroke-width="1.0824" style="paint-order:stroke fill markers"/>
  </clipPath>
  <filter id="filter219-0" x="-.090624" y="-.50352" width="1.1812" height="2.007" color-interpolation-filters="sRGB">
   <feGaussianBlur stdDeviation="1.3792604"/>
  </filter>
  <clipPath id="clipPath27-3">
   <path d="m84.605 92.584c-0.26757-0.13077-0.84776 0.28322-0.9799 0.55011-10.583 21.558-4.6985 32.771-2.0435 45.499 0.06164 0.29221 0.34834 0.47926 0.64062 0.41797 0.29208-0.0608 0.4799-0.34643 0.41992-0.63867-2.6908-12.899-8.497-23.512 1.9537-44.799 0.13181-0.26858 0.27795-0.89717 0.0092-1.0286z" fill="#516f73" stroke-linecap="round" stroke-linejoin="round" style="paint-order:stroke fill markers"/>
  </clipPath>
  <clipPath id="clipPath29-1">
   <path d="m119.42 94.281c-0.31599 0.17588-0.32717 0.76123-0.18375 1.0192 3.3756 6.0685 5.738 12.461 5.6349 18.625s-2.0215 13.403-5.2012 24.812c-0.097 0.34841 0.10671 0.70951 0.45508 0.80664 0.34841 0.097 0.70951-0.10671 0.80664-0.45508 3.1813-11.415 4.6282-18.913 4.7355-25.33 0.10735-6.4171-2.0781-12.833-5.4969-18.979-0.14353-0.25788-0.43424-0.67528-0.7503-0.49954z" fill="#516f73" opacity=".60892" stroke-linecap="round" stroke-linejoin="round"/>
  </clipPath>
  <clipPath id="clipPath35-4">
   <path d="m76.573 99.656c-1.6749 3.8133-8.1071 20.121-8.1071 20.121 0.08942 0.26826-0.99924 6.9495-8.4946 6.3004 0.01037 0.49243 3.3014 3.4013 7.5783 3.468-3.4824 2.0597-4.9077 2.712-4.9077 2.712s2.9705 1.8566 7.6202 1.7436c0.76101 2.2034 1.2578 4.1526 5.7319 9.7617 0.47426-6.7162 0.351-6.3215-0.22417-9.7-0.0016-9e-3 3.2566 4.1737 6.3426 4.459-2.6729-12.813-4.8556-22.293 6.7484-33.193 0 0 1.6145 13.303 10.204 15.628-2.1957-4.0685-2.1957-4.3269-2.1957-4.3269s1.5832 2.6513 4.7754 4.2432c-0.64581 1.0407-1.3786 2.0372-2.2102 2.9688 0 0 1.9438-0.17937 4.1868-2.2102 0.78981 0.21969 1.641 0.37221 2.5714 0.40617 0 0-0.73198-0.34903-1.8206-1.1312 2.2435-2.4168 4.6036-6.8136 5.5418-14.803 0 0 2.9763 8.3309-0.96842 13.045 0 0 6.8454 0.90374 8.2662-9.4935 0 0 1.1621 6.2644 6.7805 11.108 0 0 0.64578 6.458-4.0685 18.47 0 0 5.4661-1.7372 5.6488-2.7874 0 0-0.23983 4.0183-0.817 7.0321-0.0144 0.0144 5.7986-2.0845 6.9407-8.3566 1.1873 0.13699 7.1696 0.4566 7.1696 0.13695-3.0138-3.6988-3.1052-3.87-3.1052-3.87s3.3794 0.39964 5.9366-1.5182c-3.3792-1.8266-6.1589-2.4543-6.4451-10.762 0 0-3.1248-15.066-7.197-18.872l-30.455-8.2977z" fill="#647d81" stroke-linecap="round" stroke-linejoin="round" stroke-width="1.0824" style="paint-order:stroke fill markers"/>
  </clipPath>
 </defs>
 <g transform="translate(-271.56 16.569)">
  <g transform="translate(366.93 -188.5)">
   <path d="m-58.446 172.25c-1.9568 0.028-3.5785 2.2953-7.1308 4.9671-15.611 4.6003-21.058 18.429-21.058 34.474 0 0.83872 0.03781 1.6263 0.09198 2.3911-0.0057 0.0147-0.0097 0.0319-0.0155 0.0465 0.08942 0.26826-0.99924 6.9495-8.4946 6.3004 0.01037 0.49243 3.3014 3.4013 7.5783 3.468-3.4824 2.0597-4.9077 2.712-4.9077 2.712s2.9282 1.8217 7.5143 1.7405c0.37102 2.0612 0.78697 4.1408 1.1395 5.2064 0.12105 0.36593 0.23028 0.71858 0.33383 1.065 0.4062 1.856 0.82407 3.7566 1.1731 5.2958 0.38627 2.516 0.49388 4.2576 1.3312 5.595 2.6889 10.597 4.0841 10.494 9.5891 12.261 0 0-1.3544-6.4746-1.0568-8.9881 0 0 1.1971 6.5094 3.1616 7.1174l30.448-0.047c3.7947-2.5795 3.5195-9.4999 4.116-15.294 0.61525 5.8815-0.62614 11.471-2.0578 17.165 0 0 3.8354 0.5612 6.782-6.5014 0 0 0.2339 2.6193 0.09354 4.4902 0.32926-0.32828 11.274-3.6272 6.7882-22.115 0.19634-1.2184 0.41193-2.5224 0.67438-4.053 2.0277 0.14725 6.1929 0.33352 6.1929 0.062-3.0138-3.6988-3.1052-3.87-3.1052-3.87s3.3794 0.39963 5.9366-1.5183c-3.3792-1.8266-6.1589-2.4543-6.4451-10.762l-5.17e-4 -2e-3c0.0277-0.56937 0.04237-1.1573 0.04237-1.7658 0-14.903-4.7047-27.89-17.883-33.35l0.01654-1e-3c-3.6586-1.4008-6.8028-5.8001-8.5948-5.8808-1.3036-0.0587-3.8311 2.0244-5.1201 3.1704-0.53004-0.0178-1.0653-0.0306-1.6113-0.0331-1.2965-1.1956-3.8794-3.3706-5.5227-3.3471zm0.22583 2.2603c0.74371-7e-3 1.4169 0.53739 1.9544 1.1782-1.9315 0.10992-3.7619 0.31553-5.4793 0.62684 1.0564-1.0506 2.4074-1.7951 3.5248-1.8051zm12.658 0.43563c0.42413 8e-3 1.6045 0.86204 2.7053 1.7353-1.5541-0.35775-3.2059-0.62562-4.948-0.80822 0.64423-0.83022 1.6654-0.93774 2.2428-0.92708z" fill="none" stroke="#1f282b" stroke-linecap="round" stroke-linejoin="round" stroke-width=".64227" style="paint-order:stroke fill markers"/>
   <g>
    <g stroke-linecap="round" stroke-linejoin="round">
     <g stroke-width="1.0824">
      <path d="m-84.762 228.35c6.1046 28.205 5.8832 26.989 13.46 29.421 0 0-1.3541-6.4744-1.0564-8.988 0 0 1.1967 6.509 3.1612 7.1171l30.449-0.0468c3.7947-2.5795 3.5194-9.5002 4.116-15.294 0.61525 5.8815-0.62636 11.471-2.058 17.165 0 0 3.8353 0.56128 6.782-6.5013 0 0 0.23386 2.6192 0.0935 4.4901 0.33184-0.33085 11.454-3.6704 6.6884-22.544l-4.8643-10.056z" fill="#030a12" style="paint-order:stroke fill markers"/>
      <path d="m-85.571 224.19c0.39283 2.4896 1.2253 7.4954 1.8422 9.3603 3.2141 9.7163-0.06908 12.446 7.5836 14.882l-0.99219-2.4474s1.2237 1.4221 3.9026 3.4396c0.07271-2.0112-1.6179-11.996-6.6981-23.84z" fill="#516d71" style="paint-order:stroke fill markers"/>
      <path d="m-21.941 227.18c-3.103 17.399-1.5914 16.195-7.3592 19.831 0 0 0.47942-1.8943 0.36249-2.4906 0 0 0.0117 0.57295-3.3559 3.7535-0.18062-2.4251-0.0763-4.7431 0.21215-7.0033 0.67636-5.3008 2.3649-10.284 3.7635-15.588z" fill="#516d71" style="paint-order:stroke fill markers"/>
      <path d="m-19.731 211.69c0 19.723-14.719 18.542-33.194 18.542-18.475 0-33.71 1.1809-33.71-18.542 2e-6 -19.723 8.2292-36.1 33.452-36.1 25.223 0 33.452 16.376 33.452 36.1z" fill="#647d81" style="paint-order:stroke fill markers"/>
     </g>
     <path d="m-67.045 236.63c-0.59531 12.568-3.5822 18.19-3.5822 25.598 0 7.4083 8.1029 11.344 13.659 3.9357 0.76328-0.97082 0.81449-1.4416 2.9435-1.3751 2.129-0.0664 2.1802 0.40429 2.9435 1.3751 5.5562 7.4083 13.659 3.4727 13.659-3.9357 0-7.4083-2.9869-13.031-3.5822-25.598h-13.02z" fill="#211b2a" stroke="#1f282b" stroke-width=".642" style="paint-order:stroke fill markers"/>
    </g>
    <path d="m-67.045 236.63c-0.59531 12.568-3.5822 18.19-3.5822 25.598 0 0.0523 0.0044 0.10257 0.0052 0.15451h33.195c8e-4 -0.0519 5e-3 -0.10223 5e-3 -0.15451 0-7.4083-2.9869-13.031-3.5822-25.598h-13.02z" fill="#04416d" style="paint-order:stroke fill markers"/>
   </g>
   <g transform="translate(-155.02 94.349)" clip-path="url(#clipPath20-8)">
    <path d="m84.75 163.34c-0.21557 1.4868-0.35347 2.9713-0.35347 4.5351 0 0.35269 0.02436 0.69484 0.05994 1.0309 3.6236 1.6773 5.438 1.7059 6.3753 1.9162 1.1161 0.25041 3.4294 1.6024 6.0544 2.344 0.27233-0.27436 3.1855-1.3023 3.4489-1.6242l-0.4842-3.6768z" fill="#f7dac2" style="paint-order:normal"/>
    <path d="m83.874 168.63c4.018 1.9541 5.9711 1.9689 6.9577 2.1903 1.1613 0.26055 3.6177 1.7157 6.3739 2.4328" fill="none" stroke="#1a1a1a" stroke-linecap="round" stroke-linejoin="round" stroke-width="1.0097" style="paint-order:normal"/>
   </g>
   <g transform="translate(-155.02 94.349)" clip-path="url(#clipPath19-9)">
    <path d="m117.25 163.34c0.21557 1.4868 0.35346 2.9713 0.35346 4.5351 0 0.35269-0.0244 0.69484-0.0599 1.0309-3.6236 1.6773-5.438 1.7059-6.3753 1.9162-1.116 0.25041-3.4294 1.6024-6.0544 2.344-0.27233-0.27436-2.524-0.83924-2.7874-1.1612l-0.17725-4.1398z" clip-path="none" fill="#f7dac2" style="paint-order:normal"/>
    <path d="m118.12 168.63c-4.018 1.9541-5.9711 1.9689-6.9577 2.1903-1.1613 0.26055-3.6177 1.7157-6.3739 2.4328" clip-path="none" fill="none" stroke="#1a1a1a" stroke-linecap="round" stroke-linejoin="round" stroke-width="1.0097" style="paint-order:normal"/>
   </g>
   <g>
    <path d="m-42.454 250.38-0.75189 12.095c-4.2051 1.1919-5.1502 2.5271-8.0682 3.4298-0.58373-0.78319-0.83437-1.1812-2.7502-1.1214-1.9144-0.0598-2.1659 0.33784-2.7487 1.1198-2.9142-0.90262-3.8608-2.237-8.0636-3.4282l-0.75189-12.095h12.402z" fill="#111521" style="paint-order:normal"/>
    <path d="m-55.095 238.62-0.11007 7.5468h2.3616l-0.11007-7.5468h-1.7306z" fill="#0484af" stroke="#0e3b41" stroke-linecap="round" stroke-linejoin="round" stroke-width=".275"/>
    <path d="m-63.313 250.36v3.1166s5.7878 0.25839 8.6816 0.25839c0.18226 0 0.40362-4e-3 0.60668-6e-3 0.20306 2e-3 0.42442 6e-3 0.60668 6e-3 2.8939 0 8.6816-0.25839 8.6816-0.25839v-3.1166s-0.86757 9e-3 -1.2134 0.0129v-0.0129s-5.0591 0.0599-8.075 0.0672c-3.0158-7e-3 -8.075-0.0672-8.075-0.0672v0.0129c-0.34579-4e-3 -1.2134-0.0129-1.2134-0.0129z" fill="#0e1e31" stroke-linecap="round" stroke-linejoin="round" stroke-width=".79308"/>
   </g>
   <path d="m-55.36 251.72c-0.2205-2.7e-4 -0.39963 0.17794-0.40049 0.39843-2.71e-4 0.2213 0.1792 0.40076 0.40049 0.40049h2.6706c0.2213 2.7e-4 0.40076-0.17919 0.40049-0.40049-8.7e-4 -0.22049-0.18-0.3987-0.40049-0.39843h-1.82z" fill="#c2c0d1" stroke-linecap="round" stroke-linejoin="round"/>
   <g transform="matrix(-1 0 0 1 46.975 94.349)">
    <path d="m97.675 157.84c0 0.24924-0.44106 0.83584-0.93831 0.83584s-0.8419-0.4031-0.8419-0.90036c-3e-6 -0.49726 0.34464-0.90037 0.8419-0.90037 0.44871 0 0.90442 0.51507 0.93831 0.77931z" fill="none" stroke="#c2c0d1" stroke-linecap="round" stroke-linejoin="round" stroke-width=".4"/>
    <path d="m92.604 157.08h3.2529c0.09464 0.0291 0.24943 0.18173 0.29127 0.21022 0.04184 0.0285 0.03747 0.872 0 0.90268-0.03747 0.0307-0.18877 0.18187-0.29127 0.21022h-3.2529z" fill="#0484af"/>
    <path d="m97.697 157.84c0 0.24924 0.44106 0.83584 0.93831 0.83584s0.8419-0.4031 0.8419-0.90036c3e-6 -0.49726-0.34464-0.90037-0.8419-0.90037-0.44871 0-0.90442 0.51507-0.93831 0.77931z" fill="none" stroke="#c2c0d1" stroke-linecap="round" stroke-linejoin="round" stroke-width=".4"/>
    <path d="m95.139 157.27h0.17105v0.94387h-0.17105z" fill="#8ed4f2" stroke="#c2c0d1" stroke-linecap="round" stroke-linejoin="round" stroke-width=".57069"/>
   </g>
   <g transform="translate(-155.02 94.349)">
    <path d="m97.675 157.84c0 0.24924-0.44106 0.83584-0.93831 0.83584s-0.8419-0.4031-0.8419-0.90036c-3e-6 -0.49726 0.34464-0.90037 0.8419-0.90037 0.44871 0 0.90442 0.51507 0.93831 0.77931z" fill="none" stroke="#c2c0d1" stroke-linecap="round" stroke-linejoin="round" stroke-width=".4"/>
    <path d="m92.604 157.08h3.2529c0.09464 0.0291 0.24943 0.18173 0.29127 0.21022 0.04184 0.0285 0.03747 0.872 0 0.90268-0.03747 0.0307-0.18877 0.18187-0.29127 0.21022h-3.2529z" fill="#0484af"/>
    <path d="m97.697 157.84c0 0.24924 0.44106 0.83584 0.93831 0.83584s0.8419-0.4031 0.8419-0.90036c3e-6 -0.49726-0.34464-0.90037-0.8419-0.90037-0.44871 0-0.90442 0.51507-0.93831 0.77931z" fill="none" stroke="#c2c0d1" stroke-linecap="round" stroke-linejoin="round" stroke-width=".4"/>
    <path d="m95.139 157.27h0.17105v0.94387h-0.17105z" fill="#8ed4f2" stroke="#c2c0d1" stroke-linecap="round" stroke-linejoin="round" stroke-width=".57069"/>
   </g>
   <g stroke-linecap="round" stroke-linejoin="round">
    <path d="m-57.864 237.66h3.8399v2.7635c-1.2621-0.0319-2.4758-3e-3 -3.8514-0.17698zm7.68 0h-3.8399v2.7635c1.2621-0.0319 2.4758-3e-3 3.8514-0.17698z" fill="#316885" stroke="#0e3b41" stroke-width=".30769"/>
    <path d="m-68.342 247.77c-7.3465-4.7173-10.991-8.1526-8.7144-11.752 2.9429-3.5906 7.683 0.10845 10.715 2.1169l3.4848 4.3316zm28.635 0c7.3466-4.7173 10.991-8.1526 8.7144-11.752-2.943-3.5906-7.683 0.10845-10.715 2.1169l-3.4848 4.3316z" fill="#e4dae1" stroke="#000" stroke-width=".642" style="paint-order:stroke fill markers"/>
    <path transform="translate(-155.02 94.349)" d="m87.498 143.41c-4.8674 9.2694-10.833 12.611-4.2593 23.405 0.16177 0.48462 5.482 2.6717 8.0818 2.4929 0.21169-3.5988 1.494-8.6531 1.9544-10.278l-0.13022-2.9931 0.48266-12.103c-0.57226-1.3538-1.228-3.2858-2.4755-3.5932-1.1892-0.29304-2.9681 0.95336-3.6538 3.0697zm27.003 0c4.8674 9.2694 10.833 12.611 4.2593 23.405-0.16177 0.48462-5.482 2.6717-8.0818 2.4929-0.2117-3.5988-1.494-8.6531-1.9544-10.278l0.13023-2.9931-0.48266-12.103c0.57226-1.3538 1.228-3.2858 2.4755-3.5932 1.1892-0.29304 2.9681 0.95336 3.6538 3.0697z" clip-path="url(#clipPath5-3)" fill="#e4dae1" stroke="#000" stroke-width=".38493" style="paint-order:normal"/>
   </g>
   <path d="m-63.877 250.97c0.03316 0.50361-0.32514 0.83625-0.68022 0.85032-0.31903 0.0127-0.75363-0.26463-0.78677-0.76792-0.03314-0.50332 0.27511-0.8276 0.68022-0.85034 0.4051-0.0228 0.75361 0.26433 0.78677 0.76794zm19.706 0c-0.0332 0.50361 0.32514 0.83625 0.68021 0.85032 0.31904 0.0127 0.75363-0.26463 0.78678-0.76792 0.0331-0.50332-0.27512-0.8276-0.68022-0.85034-0.4051-0.0228-0.75361 0.26433-0.78677 0.76794z" fill="#f7dac2" stroke="#1a1a1a" stroke-linecap="round" stroke-linejoin="round" stroke-width=".323"/>
   <g>
    <g stroke="#1a1a1a" stroke-linecap="round" stroke-linejoin="round">
     <path d="m-63.931 247.74c-0.06423 0.40144-0.40593 0.68511-0.76323 0.6336-0.3573-0.0515-0.59489-0.4187-0.53068-0.82015 0.06422-0.40145 0.40593-0.68513 0.76323-0.63362 0.3573 0.0515 0.5949 0.41872 0.53068 0.82017zm19.814 0c0.0642 0.40144 0.40594 0.68511 0.76323 0.6336 0.3573-0.0515 0.59489-0.4187 0.53068-0.82015-0.0642-0.40145-0.40593-0.68513-0.76323-0.63362-0.35731 0.0515-0.5949 0.41872-0.53068 0.82017z" fill="#f7dac2" stroke-width=".323" style="paint-order:normal"/>
     <g stroke-width=".385">
      <path d="m-68.534 252.35s-0.10192 0.56299-0.07821 0.6782c0.02371 0.11521 0.13507 0.31985 0.21047 0.35201 0.09377 0.04 2.3937 0.17417 2.3937 0.17417s0.18235-9e-3 0.28401-0.17417c0.10165-0.16479 0.07016-0.82558 0.07016-0.82558zm29.02 0s0.10192 0.56299 0.0782 0.6782c-0.0237 0.11521-0.13507 0.31985-0.21047 0.35201-0.0938 0.04-2.3937 0.17417-2.3937 0.17417s-0.18236-9e-3 -0.28401-0.17417c-0.10165-0.16479-0.0702-0.82558-0.0702-0.82558z" fill="#dfdbdc" style="paint-order:normal"/>
      <path d="m-61.267 239.1-0.12919-2.7859-2.8928 0.31263s-0.49527 2.7939-0.4377 2.9781c0.05757 0.18423 2.5104 0.80619 3.4086 0.59893zm14.486 0 0.12919-2.7859 2.8928 0.31263s0.49527 2.7939 0.4377 2.9781c-0.0576 0.18423-2.5104 0.80619-3.4086 0.59893z" fill="#e4dae1" style="paint-order:normal"/>
      <path d="m-61.267 239.11s1.9768 2.626 2.0908 2.6097c0.11399-0.0163 4.8054-3.6 4.9785-3.8302 0.17308-0.2303 0.17312-2.372 0.17312-2.372l-7.3722 0.79685 0.12919 2.7859 0.03514-0.75602zm14.485 0s-1.9768 2.626-2.0908 2.6097c-0.11398-0.0163-4.8054-3.6-4.9785-3.8302-0.17308-0.2303-0.17312-2.372-0.17312-2.372l7.3722 0.79685-0.12919 2.7859-0.0351-0.75602z" fill="#e4dae1" style="paint-order:normal"/>
     </g>
    </g>
    <path d="m-55.095 238.62-0.02584 1.7849c0.36094 5e-3 0.72097 0.01 1.0847 0.0186v5.1e-4c4e-3 -1e-4 8e-3 1e-4 0.0119 0 4e-3 1e-4 8e-3 -1e-4 0.0119 0v-5.1e-4c0.36372-9e-3 0.72375-0.0132 1.0847-0.0186l-0.0258-1.7849h-1.7306z" fill="#519cb5" stroke="#0e3b41" stroke-linecap="round" stroke-linejoin="round" stroke-width=".30769"/>
    <circle cx="-54.024" cy="239.59" r=".35128" fill="#09607d" style="paint-order:normal"/>
    <path d="m-55.193 245.33-0.0124 0.8382h2.3616l-0.0124-0.8382z" fill="#0484af" stroke="#0e3b41" stroke-linecap="round" stroke-linejoin="round" stroke-width=".275" style="paint-order:normal"/>
   </g>
   <g transform="translate(-105.83 -8.9958)">
    <path d="m37.492 256.77c-7.3465-4.7173-10.991-8.1526-8.7144-11.752 2.9429-3.5906 7.683 0.10845 10.715 2.1169l3.4848 4.3316zm28.635 0c7.3466-4.7173 10.991-8.1526 8.7144-11.752-2.943-3.5906-7.683 0.10845-10.715 2.1169l-3.4848 4.3316z" fill="#e4dae1" stroke-linecap="round" stroke-linejoin="round" stroke-width="1.0824" style="paint-order:stroke fill markers"/>
    <g transform="translate(-49.191 103.34)" clip-path="url(#clipPath3-8)">
     <path d="m87.979 142.28s0.65435 2.8028-1.2967 11.145m27.338-11.145s-0.65435 2.8028 1.2967 11.145" fill="none" stroke="#000" stroke-linecap="round" stroke-linejoin="round" stroke-width=".38493" style="paint-order:stroke fill markers"/>
     <path d="m86.924 142.09s-1.7165 6.3141-5.4472 9.5382m33.598-9.5382s1.7165 6.3141 5.4472 9.5382" fill="none" stroke="#000" stroke-linecap="round" stroke-linejoin="round" stroke-width=".385" style="paint-order:stroke fill markers"/>
     <g>
      <path d="m84.931 139.74 1.5586 0.71708s-1.6046 5.527-5.5196 9.9716l-1.3598-1.0379 1.9421-5.2033zm32.137 0-1.5586 0.71708s1.6046 5.527 5.5196 9.9716l1.3598-1.0379-1.9421-5.2033z" fill="#acb3b8" style="paint-order:normal"/>
      <path d="m81.146 140.17c-1.1637-0.0276-2.2589 0.38275-3.1786 1.5048-1.2551 1.9847-0.70704 3.9198 1.2661 6.0472 1.8373-2.2709 3.4867-5.5524 3.8396-7.1655-0.6511-0.22686-1.299-0.37162-1.927-0.38654zm39.706 0c1.1637-0.0276 2.259 0.38275 3.1786 1.5048 1.2551 1.9847 0.70704 3.9198-1.2661 6.0472-1.8374-2.2709-3.4867-5.5524-3.8396-7.1655 0.6511-0.22686 1.299-0.37162 1.927-0.38654z" fill="#f7dac2" stroke-linecap="round" stroke-linejoin="round" stroke-width="1.0824" style="paint-order:stroke fill markers"/>
      <path d="m83.354 139.93c-1.2416 3.1263-2.5773 6.1852-4.9075 8.864l1.1644 0.59432c2.0698-2.5917 3.3906-5.6794 4.7002-8.7044zm35.292 0c1.2416 3.1263 2.5773 6.1852 4.9076 8.864l-1.1644 0.59432c-2.0698-2.5917-3.3906-5.6794-4.7002-8.7044z" fill="#fff" stroke="#1a1a1a" stroke-linecap="round" stroke-linejoin="round" stroke-width=".38493" style="paint-order:normal"/>
     </g>
    </g>
   </g>
   <g>
    <g stroke-linecap="round" stroke-linejoin="round">
     <path d="m-62.713 240.16s-2.1296 1.7714-2.1296 1.9036 1.2702 5.6773 2.9637 8.3153c0 0 0.74714-7.9654 0.56083-10.179zm17.378 0s2.1296 1.7714 2.1296 1.9036-1.2702 5.6773-2.9637 8.3153c0 0-0.74713-7.9654-0.56083-10.179z" fill="#e4dae1" stroke="#1a1a1a" stroke-width=".385" style="paint-order:normal"/>
     <path d="m-20.253 215.42c0 12.727-11.418 23.044-32.672 23.044-21.254 0-32.672-10.317-32.672-23.044 3e-6 -12.727 14.628-23.044 32.672-23.044 18.044 0 32.672 10.317 32.672 23.044z" fill="#f7dac2" stroke="#1f282b" stroke-width=".642" style="paint-order:stroke fill markers"/>
     <path d="m-67.374 178.48c4.8596-3.1805 6.6678-6.1996 8.928-6.2319 2.2603-0.0323 6.3287 4.1169 6.3287 4.1169s4.133-3.9878 5.9251-3.907c1.7921 0.0807 4.9368 4.4798 8.5953 5.8805l-3.0254 0.20605s-4.0685-3.5841-4.9403-3.6003c-0.87182-0.0161-2.7608 0.22603-2.8253 2.8415l-6.6194-0.0646s-1.4046-3.229-3.2128-3.2128c-1.8082 0.0161-4.2299 1.9535-5.021 4.0039z" fill="#647d81" stroke-width="1.0824" style="paint-order:stroke fill markers"/>
    </g>
    <path transform="rotate(3.5995 -1492 -2282.9)" d="m90.355 136.76c0 1.1142-1.5844 2.0174-3.5388 2.0174-1.9544 0-3.5388-0.90324-3.5388-2.0174s1.5844-2.0174 3.5388-2.0174c1.9544 0 3.5388 0.90324 3.5388 2.0174zm22.455-1.8897c0.18621 1.0985 1.8993 1.7243 3.8262 1.3976 1.9269-0.32664 3.3381-1.482 3.1519-2.5805-0.18621-1.0985-1.8993-1.7243-3.8262-1.3976s-3.3381 1.482-3.1519 2.5805z" fill="#efb9ae" filter="url(#filter219-0)" opacity=".60892" style="mix-blend-mode:normal;paint-order:normal"/>
   </g>
   <g transform="translate(-155.02 94.349)" stroke-linecap="round" stroke-linejoin="round">
    <path d="m95.394 127.6c-1e-6 3.3099-2.1599 5.9932-5.055 5.9932s-5.055-2.6832-5.055-5.9932c-3e-6 -3.3099 2.0364-5.9932 5.055-5.9932s5.055 2.6832 5.055 5.9932zm12.82-0.24172c0.12478 3.3076 2.3842 5.9075 5.2773 5.7983s4.9502-2.8719 4.8254-6.1794c-0.12477-3.3076-2.2609-5.9121-5.2773-5.7983s-4.9502 2.8719-4.8254 6.1795z" fill="#514549" stroke-width="1.091" style="paint-order:stroke fill markers"/>
    <path d="m86.509 129.02c0.47409 1.9517 1.9563 3.3745 3.8292 3.3745s3.3551-1.4228 3.8292-3.3745zm30.636-0.57764c-0.40018 1.9682-1.8278 3.4458-3.6993 3.5164-1.8716 0.0706-3.4064-1.2953-3.9537-3.2277z" fill="#b7b49e" stroke-width=".86115" style="paint-order:stroke fill markers"/>
    <g fill="#514549" stroke-width="1.0824">
     <path d="m84.581 128.28c-2.8939-2.4309-3.4533-3.8899-3.4533-3.8899-0.23038-0.13823 9.7271-7.7842 16.322 1.6871-0.0095-0.0473-7.0166-4.9383-13.915-0.88867 0 0 0.29673 1.3478 1.0461 3.0914zm34.463-0.6498c2.8002-2.5382 3.3042-4.0173 3.3042-4.0173 0.22501-0.14681-10.014-7.412-16.247 2.3012 8e-3 -0.0476 6.8254-5.1993 13.871-1.4126 0 0-0.24571 1.358-0.92877 3.1287z" style="paint-order:stroke fill markers"/>
     <path d="m83.112 121.23 0.74414 2.1994 2.0009-1.1741c-0.91911-0.37042-1.8464-0.79802-2.7451-1.0253zm37.134-0.70017-0.6607 2.2258-2.0438-1.0978c0.90449-0.4048 1.815-0.86705 2.7044-1.128z" style="paint-order:stroke fill markers"/>
     <path d="m85.99 120.45 0.51986 1.604 2.1756-0.45345s-1.7363-1.1671-2.6954-1.1506zm31.352-0.59115-0.45902 1.6225-2.1911-0.37112s1.6911-1.2318 2.6502-1.2514z" style="paint-order:stroke fill markers"/>
    </g>
    <path d="m82.451 119.06c2.9061-1.9848 10.107-3.2576 15.888 2.191-6.4978-3.1813-8.6915-3.436-15.888-2.191zm38.375-0.72356c-2.9788-1.8738-10.223-2.8742-15.794 2.7884 6.3733-3.424 8.5558-3.7612 15.794-2.7884z" fill="#66655f" stroke-width="1.0824" style="paint-order:stroke fill markers"/>
   </g>
   <g stroke-linecap="round" stroke-linejoin="round">
    <path d="m-61.896 219.08a1.5205 1.4223 78.71 0 1-0.67251 2.0034 1.5205 1.4223 78.71 0 1-1.9016-0.7669 1.5205 1.4223 78.71 0 1 0.67251-2.0034 1.5205 1.4223 78.71 0 1 1.9016 0.7669z" fill="#d7dce2" stroke-width="1.0713" style="paint-order:stroke fill markers"/>
    <path d="m-84.762 228.35c0.76101 2.2034 1.2578 4.1526 5.732 9.7617 0.47425-6.7162 0.351-6.3215-0.22417-9.7-0.0016-9e-3 3.2566 4.1738 6.3426 4.459-2.6729-12.813-4.8556-22.293 6.7484-33.193 0 0 1.6145 13.303 10.204 15.628-2.1957-4.0685-2.1957-4.3269-2.1957-4.3269s1.5832 2.6513 4.7754 4.2432c-0.64581 1.0407-1.3786 2.0372-2.2102 2.9688 0 0 1.9438-0.17938 4.1868-2.2102 0.78981 0.21969 1.641 0.37221 2.5714 0.40616 0 0-0.73198-0.34902-1.8206-1.1312 2.2435-2.4168 4.6036-6.8136 5.5418-14.803 0 0 2.9763 8.3309-0.96842 13.045 0 0 6.8454 0.90374 8.2662-9.4935 0 0 1.1621 6.2644 6.7805 11.108 0 0 0.64578 6.458-4.0685 18.47 0 0 5.4661-1.7372 5.6488-2.7874 0 0-0.23983 4.0183-0.817 7.0321-0.0144 0.0144 5.7986-2.0845 6.9407-8.3566 1.1873 0.13699 7.1696 0.4566 7.1696 0.13695" fill="none" stroke="#1f282b" stroke-width=".642" style="paint-order:stroke fill markers"/>
    <path d="m-41.305 219.08a1.4223 1.5205 11.29 0 0 0.6725 2.0034 1.4223 1.5205 11.29 0 0 1.9016-0.7669 1.4223 1.5205 11.29 0 0-0.67251-2.0034 1.4223 1.5205 11.29 0 0-1.9016 0.7669z" fill="#d7dce2" stroke-width="1.0713" style="paint-order:stroke fill markers"/>
    <path d="m-78.451 194.01c-0.87926 1.9379-4.3009 7.6951-6.4952 13.224-0.96001 2.4188-0.90958 5.1415-1.6119 6.8973 0.08942 0.26826-0.99924 6.9495-8.4946 6.3004 0.01037 0.49243 3.3014 3.4013 7.5783 3.468-3.4824 2.0597-4.9077 2.712-4.9077 2.712s2.9705 1.8566 7.6202 1.7436c0.76101 2.2034 1.2578 4.1526 5.732 9.7617 0.47425-6.7162 0.351-6.3215-0.22417-9.7-0.0016-9e-3 3.2566 4.1738 6.3426 4.459-2.6729-12.813-4.8556-22.293 6.7484-33.193 0 0 1.6145 13.303 10.204 15.628-2.1957-4.0685-2.1957-4.3269-2.1957-4.3269s1.5832 2.6513 4.7754 4.2432c-0.64581 1.0407-1.3786 2.0372-2.2102 2.9688 0 0 1.9438-0.17938 4.1868-2.2102 0.78981 0.21969 1.641 0.37221 2.5714 0.40616 0 0-0.73198-0.34902-1.8206-1.1312 2.2435-2.4168 4.6036-6.8136 5.5418-14.803 0 0 2.9763 8.3309-0.96842 13.045 0 0 6.8454 0.90374 8.2662-9.4935 0 0 1.1621 6.2644 6.7805 11.108 0 0 0.64578 6.458-4.0685 18.47 0 0 5.4661-1.7372 5.6488-2.7874 0 0-0.23983 4.0183-0.817 7.0321-0.0144 0.0144 5.7986-2.0845 6.9407-8.3566 1.1873 0.13699 7.1696 0.4566 7.1696 0.13695-3.0138-3.6988-3.1052-3.87-3.1052-3.87s3.3794 0.39964 5.9366-1.5182c-3.3792-1.8266-6.1589-2.4543-6.4451-10.762 0 0-3.1248-15.066-7.197-18.872l-30.455-8.2977z" fill="#647d81" stroke-width="1.0824" style="paint-order:stroke fill markers"/>
   </g>
   <g fill="#587479">
    <path transform="translate(-155.02 94.349)" d="m76.573 99.656-0.80303 34.407c-0.0016-9e-3 3.2566 4.1737 6.3426 4.459-2.6729-12.813-4.8556-22.293 6.7484-33.193-0.54885-23.174-6.3742-14.688-12.288-5.6723z" clip-path="url(#clipPath27-3)" stroke-linecap="round" stroke-linejoin="round" stroke-width="1.0824" style="paint-order:stroke fill markers"/>
    <path transform="translate(-155.02 94.349)" d="m117.21 109.65s1.1621 6.2644 6.7805 11.108c0 0 0.64578 6.458-4.0685 18.47 0 0 5.4661-1.7372 5.6488-2.7874 0 0-0.23983 4.0183-0.817 7.0321-0.0144 0.0144 5.7986-2.0845 6.9407-8.3566 1.1873 0.13699 7.1696 0.4566 7.1696 0.13695-3.0138-3.6988-3.1052-3.87-3.1052-3.87s3.3794 0.39964 5.9366-1.5182c-3.3792-1.8266-6.1589-2.4543-6.4451-10.762 0 0-3.1248-15.066-7.197-18.872-9.5725-14.543-4.9566-9.2285-15.207-9.9815z" clip-path="url(#clipPath29-1)" stroke-linecap="round" stroke-linejoin="round" stroke-width="1.0824" style="paint-order:stroke fill markers"/>
    <path transform="translate(-155.02 94.349)" d="m106.83 105.97c-2.6796 14.925-9.0196 19.598-8.074 18.292 5.4039-4.0775 8.0086-12.606 8.4245-17.43 0.0266-0.3088 0.0362-1.3903-0.35053-0.86123z" clip-path="url(#clipPath35-4)" style="paint-order:stroke fill markers"/>
   </g>
   <path d="m-54.574 230.2h2.5371s0.52917 0.031 0.52917 0.47353c0 0.4881-0.52917 0.47353-0.52917 0.47353h-2.5371s-0.52917 0.0146-0.52917-0.47353c0-0.44028 0.52917-0.47353 0.52917-0.47353z" fill="#b5634e" stroke-linecap="round" stroke-linejoin="round" stroke-width="1.0824" style="paint-order:stroke fill markers"/>
  </g>
  <animateTransform additive="sum" attributeName="transform" type="translate" values="0,110"/>
  <animateTransform additive="sum" attributeName="transform" calcMode="spline" dur="0.4s" keySplines="0.5 0 0.5 1; 0.5 0 0.5 1" repeatCount="indefinite" type="skewX" values="1; -1; 1"/>
  <animateTransform additive="sum" attributeName="transform" calcMode="spline" dur="0.2s" keySplines="0.5 0 0.5 1; 0.5 0 0.5 1" repeatCount="indefinite" type="scale" values="1,0.95; 1,1; 1,0.95"/>
  <animateTransform additive="sum" attributeName="transform" calcMode="spline" dur="0.4s" keySplines="0.5 0 0.5 1; 0.5 0 0.5 1" repeatCount="indefinite" type="rotate" values="-2,310,0; 2,310,0; -2,310,0"/>
  <animateTransform additive="sum" attributeName="transform" type="translate" values="0,-110"/>
 </g>
</svg>
